<svg width="16" height="16" viewBox="0 0 16 16" fill="none" xmlns="http://www.w3.org/2000/svg">
<path d="M9.33331 4.66668C9.33331 5.55073 8.98187 6.39833 8.35675 7.02345C7.73163 7.64857 6.88403 8.00001 5.99998 8.00001C5.11592 8.00001 4.26833 7.64857 3.64321 7.02345C3.01809 6.39833 2.66665 5.55073 2.66665 4.66668C2.66665 3.78262 3.01809 2.93503 3.64321 2.30991C4.26833 1.68478 5.11592 1.33334 5.99998 1.33334C6.88403 1.33334 7.73163 1.68478 8.35675 2.30991C8.98187 2.93503 9.33331 3.78262 9.33331 4.66668Z" fill="currentColor"/>
<path d="M1.33331 13.3333V12.6667C1.33331 11.7826 1.68475 10.935 2.30988 10.3099C2.935 9.68478 3.78259 9.33334 4.66665 9.33334H7.33331C8.21737 9.33334 9.06496 9.68478 9.69008 10.3099C10.3152 10.935 10.6666 11.7826 10.6666 12.6667V13.3333C10.6666 14.0697 10.0697 14.6667 9.33331 14.6667H2.66665C1.93027 14.6667 1.33331 14.0697 1.33331 13.3333Z" fill="currentColor"/>
<path d="M10.832 1.44077C10.4754 1.34946 10.1122 1.5646 10.0208 1.92123C10.0079 1.97172 10.0011 2.02235 9.99998 2.07231V2.10181C10.0011 2.15318 10.0082 2.20368 10.0208 2.25244C10.0208 2.25244 10.059 2.33059 10.117 2.46391C10.3016 2.88785 10.6875 3.8696 10.6875 4.66997C10.6875 5.47025 10.3017 6.45184 10.1171 6.87587C10.059 7.00929 10.0208 7.08751 10.0208 7.08751C10.0082 7.13647 10.0011 7.18719 9.99998 7.23878C9.99872 7.29803 10.0054 7.35842 10.0208 7.41863C10.1121 7.77531 10.4753 7.99042 10.832 7.8991C11.549 7.71552 12.1848 7.29885 12.6387 6.7142C13.0925 6.12953 13.3385 5.41007 13.3385 4.66993C13.3385 3.92993 13.0923 3.21092 12.6387 2.62631C12.1848 2.04164 11.549 1.62435 10.832 1.44077Z" fill="currentColor"/>
<path d="M11.3548 9.9336C11.4468 9.57711 11.8101 9.3624 12.1666 9.45444C12.879 9.63835 13.5107 10.0531 13.9629 10.6335C14.4149 11.2137 14.6624 11.9272 14.6666 12.6628V13.3333C14.6666 14.0697 14.0697 14.6667 13.3333 14.6667C12.5969 14.6667 12 14.0697 12 13.3333L11.9922 12.5059C12 11.3333 11.2628 10.2901 11.3548 9.9336Z" fill="currentColor"/>
</svg>
