<svg width="16" height="16" viewBox="0 0 16 16" fill="none" xmlns="http://www.w3.org/2000/svg">
<path d="M9.29555 2.00129C9.58679 1.98477 9.85515 2.15919 9.95766 2.43228L11.7956 7.33333H14C14.3682 7.33333 14.6666 7.6318 14.6666 7.99999C14.6666 8.36818 14.3682 8.66666 14 8.66666H11.3333C11.0555 8.66666 10.8066 8.49445 10.709 8.23437L9.46027 4.90494L7.31313 13.4948C7.24235 13.7779 6.99577 13.9821 6.70441 13.9987C6.41317 14.0152 6.14481 13.8408 6.0423 13.5677L4.20441 8.66666H1.99998C1.63179 8.66666 1.33331 8.36818 1.33331 7.99999C1.33331 7.6318 1.63179 7.33333 1.99998 7.33333H4.66665C4.94447 7.33333 5.19336 7.50553 5.291 7.76562L6.53904 11.0944L8.68683 2.5052L8.72133 2.40299C8.81992 2.17393 9.04055 2.01582 9.29555 2.00129Z" fill="white"/>
</svg>
